<svg xmlns="http://www.w3.org/2000/svg" viewBox="0 0 20 20" fill="#FFFFFF" stroke="none">
  <!-- Magic wand (diagonal) -->
  <rect x="2" y="9" width="14" height="2" rx="0.5" transform="rotate(-45 9 10)"/>
  <!-- 4-pointed stars -->
  <path d="M14,3 L14.5,5 L15,3 L14.5,1 Z M13,3 L14.5,3.5 L16,3 L14.5,2.5 Z"/>
  <path d="M17,8 L17.3,9 L17.6,8 L17.3,7 Z M16.3,8 L17.3,8.3 L18.3,8 L17.3,7.7 Z"/>
  <path d="M11,7 L11.2,7.8 L11.4,7 L11.2,6.2 Z M10.4,7 L11.2,7.2 L12,7 L11.2,6.8 Z"/>
  <!-- Small dots -->
  <circle cx="8" cy="4" r="0.6"/>
  <circle cx="16" cy="11" r="0.5"/>
</svg>
