<svg xmlns="http://www.w3.org/2000/svg" viewBox="0 0 72 72">
  <!-- Magic wand (diagonal) -->
  <rect x="10" y="25" width="40" height="5" rx="2" transform="rotate(-45 28 22)" fill="#666666"/>
  <!-- 4-pointed stars (large) -->
  <path d="M48,8 L50,14 L52,8 L50,2 Z M44,8 L50,10 L56,8 L50,6 Z" fill="#666666"/>
  <path d="M56,24 L57.5,28 L59,24 L57.5,20 Z M53.5,24 L57.5,25.5 L61.5,24 L57.5,22.5 Z" fill="#666666"/>
  <!-- 4-pointed star (small) -->
  <path d="M38,18 L39,21 L40,18 L39,15 Z M36,18 L39,19 L42,18 L39,17 Z" fill="#666666"/>
  <!-- Small dots -->
  <circle cx="28" cy="6" r="2" fill="#666666"/>
  <circle cx="60" cy="34" r="1.5" fill="#666666"/>
</svg>
