<svg xmlns="http://www.w3.org/2000/svg" viewBox="0 0 144 144">
  <desc>{"colors":{"backgroundColor":"#2a4a5a","textColor":"#ffffff","graphic1Color":"#ffffff"}}</desc>
  <g filter="url(#activity-state)">
    <rect x="0" y="0" width="144" height="144" fill="{{backgroundColor}}"/>

    <!-- Landscape (svgrepo, scaled to icon content area) -->
    <g transform="translate(32, 17) scale(0.176)">
      <path d="M41.035,155.681h136.152c22.28,0,40.406-18.127,40.406-40.407s-18.126-40.407-40.406-40.407
        c-2.588,0-5.18,0.25-7.714,0.742c-5.942-16.419-21.169-27.374-38.229-27.374c-0.732,0-1.413,0.046-2.014,0.087
        c-0.177,0.012-0.354,0.024-0.534,0.035c-6.829-21.851-26.796-36.528-49.706-36.528c-28.716,0-52.079,23.363-52.079,52.08
        c0,4.293,0.545,8.618,1.634,12.938C12.041,82.208,0.628,97.821,0.628,115.274C0.628,137.554,18.754,155.681,41.035,155.681z"
        fill="{{graphic1Color}}"/>
      <path d="M437.365,273.366c-4.581-0.285-9.524-0.43-14.691-0.43c-14.286,0-32.592,1.058-54.836,4.36v-37.154h74.514
        c3.256,0,5.862-1.386,7.15-3.803c1.273-2.391,0.985-5.275-0.792-7.917l-41.911-62.28h12.153c2.998,0,5.405-1.312,6.603-3.599
        c1.188-2.269,0.906-4.958-0.772-7.379l-43-62.022h13.769c2.712,0,4.98-1.28,6.066-3.426c1.082-2.135,0.779-4.701-0.81-6.867
        L345.799,7.904c-1.412-1.926-3.523-3.03-5.791-3.03c-2.277,0-4.398,1.112-5.82,3.05l-55.011,74.916
        c-1.589,2.166-1.892,4.736-0.809,6.874c1.087,2.147,3.354,3.429,6.065,3.429h13.779l-43.01,62.003
        c-1.679,2.424-1.959,5.118-0.769,7.393c1.2,2.291,3.605,3.604,6.6,3.604h12.157l-41.915,62.254
        c-1.778,2.644-2.065,5.536-0.788,7.935c1.291,2.422,3.895,3.812,7.147,3.812h74.202v48.705
        c-19.413,5.047-40.685,11.59-63.808,20.034c-74.561,27.227-133.625,60.641-162.196,78.135
        c-19.596,11.999-36.415,23.505-48.638,33.274c-18.247,14.585-19.124,19.482-18.515,22.929c0.47,2.658,2.711,5.498,7.592,5.498
        h408.099c0.391,0.04,0.993,0.084,1.749,0.084c0,0,0,0,0,0c2.295,0,6.726-0.435,10.615-3.341c3.166-2.365,6.938-7.132,6.938-16.403
        v-138.88C453.674,282.97,450.844,274.205,437.365,273.366z"
        fill="{{graphic1Color}}"/>
      <path d="M226.283,284.47c2.646-1.007,4.617-3.662,4.904-6.608c0.242-2.485-0.803-4.711-2.798-5.956
        C183.314,243.817,90.704,222.03,41.111,222.03C13.832,222.03,0,228.321,0,240.728v153.323c0,6.044,3.664,8.749,7.295,8.749
        c2.836,0,5.063-1.592,5.888-2.274c1.747-1.446,3.429-2.791,4.989-4.038c13.188-10.543,31.083-22.805,51.75-35.46
        C97.389,344.209,154.226,311.899,226.283,284.47z"
        fill="{{graphic1Color}}"/>
    </g>

    <!-- Label -->
    <text x="72" y="126" text-anchor="middle" dominant-baseline="central"
          fill="{{textColor}}" font-family="Arial, sans-serif" font-size="20" font-weight="bold">{{mainLabel}}</text>
  </g>
</svg>
