<svg xmlns="http://www.w3.org/2000/svg" viewBox="0 0 77.3 65.3">
  <desc>{"colors":{"backgroundColor":"#2a1a3a","textColor":"#ffffff","graphic1Color":"#ffffff"},"title":{"text":"SCREENSHOT\nGIANT"},"border":{"color":"#5a3a6a"}}</desc>
  <defs>
    <linearGradient id="pgb" x1="0" y1="0" x2="0" y2="1"><stop stop-color="#ffffff"/><stop offset="1" stop-color="#ffffff" stop-opacity="0.6"/></linearGradient>
    <radialGradient id="lns" cx="0.38" cy="0.32" r="0.95"><stop stop-color="#8ed4ff"/><stop offset="0.55" stop-color="#2c5f9e"/><stop offset="1" stop-color="#122c4d"/></radialGradient>
    <filter id="glow" x="-80%" y="-80%" width="260%" height="260%"><feGaussianBlur stdDeviation="3"/></filter>
  </defs>
  <g transform="translate(-9.2 -5.2)">

    <path d="M12 16 v-8 h8" fill="none" stroke="#ffffff" stroke-width="3.5" stroke-linecap="round" stroke-linejoin="round"/>
    <path d="M76 8 h8 v8" fill="none" stroke="#ffffff" stroke-width="3.5" stroke-linecap="round" stroke-linejoin="round"/>
    <path d="M84 60 v8 h-8" fill="none" stroke="#ffffff" stroke-width="3.5" stroke-linecap="round" stroke-linejoin="round"/>
    <path d="M20 68 h-8 v-8" fill="none" stroke="#ffffff" stroke-width="3.5" stroke-linecap="round" stroke-linejoin="round"/><g transform="translate(14 10) scale(0.78)">
    <rect x="34" y="13" width="18" height="11" rx="3" fill="url(#pgb)"/>
    <rect x="16" y="22" width="54" height="38" rx="7" fill="url(#pgb)"/>
    <rect x="16" y="22" width="54" height="10" rx="7" fill="#ffffff" opacity="0.25"/>
    <circle cx="43" cy="41" r="13" fill="#1c1430"/>
    <circle cx="43" cy="41" r="11" fill="url(#lns)"/>
    <circle cx="39" cy="36" r="3.5" fill="#ffffff" opacity="0.85"/>
  </g>
    <path transform="translate(76 14) scale(0.85)" d="M0 0 l2.6 6 6 2.6 -6 2.6 -2.6 6 -2.6 -6 -6 -2.6 6 -2.6 Z" fill="#f6d34c" filter="url(#glow)"/>
    <path transform="translate(76 14) scale(0.85)" d="M0 0 l2.6 6 6 2.6 -6 2.6 -2.6 6 -2.6 -6 -6 -2.6 6 -2.6 Z" fill="#f6d34c"/>
  </g>
</svg>
